# Blender 4.2.3 LTS
# www.blender.org
o CustomSphere
v 0.425325 0.000000 0.262866
v 0.154509 0.404508 -0.250000
v 0.404509 0.250000 -0.154509
v -0.154509 0.404508 -0.250000
v 0.404509 0.250000 -0.154509
v 0.250000 0.154508 -0.404509
v 0.425325 -0.000000 -0.262866
v 0.425325 -0.000000 -0.262866
v -0.154509 0.404508 -0.250000
v 0.262866 -0.425325 0.000000
v 0.154509 -0.404508 0.250000
v 0.404509 -0.250000 -0.154508
v 0.154509 -0.404508 0.250000
v -0.250000 -0.154509 -0.404509
v 0.154509 -0.404509 -0.250000
v 0.000000 0.262865 -0.425325
v -0.154509 0.404508 -0.250000
v -0.404509 -0.250000 -0.154508
v -0.262866 -0.425325 0.000000
v -0.262866 -0.425325 0.000000
v 0.000000 -0.262865 0.425325
v -0.154509 -0.404509 -0.250000
v 0.154509 -0.404509 -0.250000
v -0.404509 -0.250000 -0.154508
v -0.425325 -0.000000 -0.262866
v -0.500000 0.000000 0.000000
v -0.404509 0.250000 -0.154509
v -0.250000 0.154508 -0.404509
v -0.154509 0.404508 -0.250000
v -0.250000 0.154508 -0.404509
v 0.000000 -0.000000 -0.500000
v 0.000000 0.262865 -0.425325
v -0.250000 -0.154509 -0.404509
v -0.250000 0.154508 -0.404509
v 0.000000 -0.000000 -0.500000
v -0.154509 0.404508 -0.250000
v 0.154509 0.404508 -0.250000
v 0.000000 0.500000 -0.000000
v -0.262866 0.425325 -0.000000
v 0.000000 0.500000 -0.000000
v -0.250000 -0.154509 -0.404509
v -0.425325 -0.000000 -0.262866
v -0.250000 0.154508 -0.404509
v 0.000000 0.262865 -0.425325
v -0.250000 0.154508 -0.404509
v -0.250000 0.154508 -0.404509
v -0.404509 0.250000 -0.154509
v -0.425325 -0.000000 -0.262866
v 0.250000 0.154508 -0.404509
v 0.000000 -0.000000 -0.500000
v 0.250000 -0.154509 -0.404509
v 0.425325 -0.000000 -0.262866
v 0.250000 0.154508 -0.404509
v 0.250000 -0.154509 -0.404509
v 0.000000 -0.000000 -0.500000
v 0.000000 -0.262866 -0.425325
v 0.250000 0.154508 -0.404509
v 0.250000 -0.154509 -0.404509
v 0.000000 -0.000000 -0.500000
v 0.000000 -0.262866 -0.425325
v 0.000000 -0.000000 -0.500000
v 0.154509 -0.404509 -0.250000
v 0.250000 -0.154509 -0.404509
v 0.404509 -0.250000 -0.154508
v -0.500000 0.000000 0.000000
v -0.404509 -0.250000 -0.154508
v -0.425325 -0.000000 -0.262866
v 0.250000 -0.154508 0.404509
v 0.404509 -0.250000 0.154509
v 0.154509 -0.404508 0.250000
v 0.000000 -0.500000 0.000000
v -0.154509 -0.404508 0.250000
v 0.250000 -0.154508 0.404509
v 0.000000 -0.262865 0.425325
v 0.154509 -0.404508 0.250000
v 0.250000 -0.154509 -0.404509
v 0.404509 -0.250000 -0.154508
v 0.425325 -0.000000 -0.262866
v 0.404509 -0.250000 0.154509
v 0.404509 -0.250000 -0.154508
v 0.262866 -0.425325 0.000000
v -0.154509 -0.404508 0.250000
v 0.000000 -0.262865 0.425325
v 0.154509 -0.404509 -0.250000
v -0.154509 -0.404509 -0.250000
v 0.000000 -0.500000 0.000000
v 0.262866 -0.425325 0.000000
v 0.000000 -0.500000 0.000000
v 0.154509 -0.404508 0.250000
v -0.154509 -0.404509 -0.250000
v 0.000000 -0.262866 -0.425325
v 0.000000 -0.500000 0.000000
v -0.154509 -0.404508 0.250000
v -0.262866 -0.425325 0.000000
v -0.250000 -0.154509 -0.404509
v -0.154509 -0.404509 -0.250000
v 0.000000 -0.262866 -0.425325
v -0.154509 -0.404509 -0.250000
v -0.404509 -0.250000 -0.154508
v -0.250000 -0.154509 -0.404509
v 0.000000 -0.500000 0.000000
v 0.262866 -0.425325 0.000000
v -0.500000 0.000000 0.000000
v -0.404509 -0.250000 -0.154508
v -0.404509 -0.250000 0.154509
v -0.250000 -0.154508 0.404509
v -0.404509 -0.250000 0.154509
v -0.425325 0.000000 0.262866
v -0.500000 0.000000 0.000000
v -0.425325 -0.000000 -0.262866
v -0.404509 0.250000 -0.154509
v -0.250000 -0.154509 -0.404509
v 0.154509 0.404508 -0.250000
v 0.000000 0.500000 -0.000000
v 0.262866 0.425325 -0.000000
v 0.154509 0.404508 -0.250000
v 0.262866 0.425325 -0.000000
v 0.154509 0.404508 -0.250000
v 0.404509 0.250000 -0.154509
v 0.250000 0.154508 -0.404509
v 0.154509 0.404508 -0.250000
v 0.000000 0.262865 -0.425325
v 0.250000 0.154508 -0.404509
v 0.000000 0.262865 -0.425325
v 0.500000 0.000000 0.000000
v 0.404509 -0.250000 0.154509
v 0.404509 0.250000 -0.154509
v 0.425325 -0.000000 -0.262866
v 0.500000 0.000000 0.000000
v 0.500000 0.000000 0.000000
v 0.404509 -0.250000 -0.154508
v -0.250000 -0.154508 0.404509
v -0.154509 -0.404508 0.250000
v 0.404509 -0.250000 -0.154508
v 0.404509 -0.250000 0.154509
v 0.500000 0.000000 0.000000
v 0.404509 -0.250000 0.154509
v 0.262866 -0.425325 0.000000
v 0.154509 -0.404508 0.250000
v 0.154509 -0.404509 -0.250000
v 0.250000 -0.154509 -0.404509
v 0.000000 -0.262866 -0.425325
v 0.154509 -0.404509 -0.250000
v -0.154509 -0.404508 0.250000
v -0.404509 -0.250000 0.154509
v -0.262866 -0.425325 0.000000
v 0.000000 -0.500000 0.000000
v -0.154509 -0.404509 -0.250000
v -0.404509 -0.250000 0.154509
v -0.154509 -0.404508 0.250000
v -0.250000 -0.154508 0.404509
v -0.262866 -0.425325 0.000000
v -0.404509 -0.250000 0.154509
v -0.404509 -0.250000 -0.154508
v -0.404509 -0.250000 0.154509
v -0.425325 0.000000 0.262866
v 0.000000 0.000000 0.500000
v -0.250000 0.154509 0.404509
v 0.000000 0.500000 -0.000000
v 0.154509 0.404509 0.250000
v 0.154509 0.404509 0.250000
v -0.154509 0.404509 0.250000
v -0.404509 0.250000 0.154508
v -0.250000 0.154509 0.404509
v -0.154509 0.404509 0.250000
v 0.000000 0.262866 0.425325
v -0.154509 0.404509 0.250000
v 0.250000 0.154509 0.404509
v 0.250000 0.154509 0.404509
v 0.000000 0.262866 0.425325
v 0.262866 0.425325 -0.000000
v 0.404509 0.250000 -0.154509
v 0.000000 0.262866 0.425325
v 0.404509 0.250000 0.154508
v -0.250000 0.154509 0.404509
v 0.000000 -0.262865 0.425325
v 0.250000 -0.154508 0.404509
v 0.250000 0.154509 0.404509
v 0.425325 0.000000 0.262866
v -0.250000 0.154509 0.404509
v -0.154509 0.404509 0.250000
v 0.000000 0.262866 0.425325
v 0.154509 0.404509 0.250000
v -0.154509 0.404509 0.250000
v -0.262866 0.425325 -0.000000
v -0.404509 0.250000 0.154508
v -0.262866 0.425325 -0.000000
v -0.404509 0.250000 0.154508
v -0.404509 0.250000 -0.154509
v -0.404509 0.250000 0.154508
v -0.404509 0.250000 -0.154509
v -0.500000 0.000000 0.000000
v -0.404509 0.250000 0.154508
v -0.250000 0.154509 0.404509
v -0.425325 0.000000 0.262866
v -0.500000 0.000000 0.000000
v -0.425325 0.000000 0.262866
v -0.404509 0.250000 0.154508
v -0.404509 0.250000 -0.154509
v -0.154509 0.404508 -0.250000
v -0.262866 0.425325 -0.000000
v -0.250000 -0.154508 0.404509
v 0.000000 0.000000 0.500000
v -0.250000 0.154509 0.404509
v 0.250000 -0.154508 0.404509
v 0.000000 0.000000 0.500000
v 0.250000 0.154509 0.404509
v 0.000000 0.500000 -0.000000
v -0.154509 0.404509 0.250000
v -0.262866 0.425325 -0.000000
v 0.262866 0.425325 -0.000000
v 0.262866 0.425325 -0.000000
v 0.404509 0.250000 0.154508
v 0.154509 0.404509 0.250000
v 0.000000 0.500000 -0.000000
v 0.154509 0.404509 0.250000
v 0.404509 0.250000 0.154508
v 0.425325 0.000000 0.262866
v 0.250000 0.154509 0.404509
v 0.404509 0.250000 0.154508
v 0.425325 0.000000 0.262866
v 0.500000 0.000000 0.000000
v 0.404509 0.250000 0.154508
v 0.404509 0.250000 -0.154509
v 0.500000 0.000000 0.000000
v 0.404509 -0.250000 0.154509
v 0.250000 -0.154508 0.404509
v 0.425325 0.000000 0.262866
v 0.154509 0.404509 0.250000
v 0.404509 0.250000 0.154508
v -0.425325 0.000000 0.262866
v -0.250000 -0.154508 0.404509
v 0.250000 -0.154508 0.404509
v 0.000000 0.000000 0.500000
v -0.250000 -0.154508 0.404509
v 0.000000 -0.262865 0.425325
v 0.000000 0.000000 0.500000
v 0.250000 0.154509 0.404509
v 0.000000 0.262866 0.425325
v 0.000000 0.000000 0.500000
vn 0.9342 -0.3568 -0.0000
vn 0.2680 0.9435 -0.1947
vn 0.5831 0.7488 -0.3151
vn 0.5774 0.5774 -0.5774
vn -0.0000 0.7779 -0.6284
vn 0.3151 0.5831 -0.7488
vn 0.7488 0.3151 -0.5831
vn 0.9435 -0.1947 -0.2680
vn 0.9435 -0.1947 0.2680
vn 0.9435 0.1947 -0.2680
vn 0.7779 -0.6284 -0.0000
vn 0.7488 -0.3151 -0.5831
vn -0.0000 -0.7779 0.6284
vn 0.5774 -0.5774 -0.5774
vn 0.6284 -0.0000 -0.7779
vn 0.1947 -0.2680 -0.9435
vn 0.3568 -0.0000 -0.9342
vn -0.3568 -0.0000 -0.9342
vn -0.1947 0.2680 -0.9435
vn -0.6284 -0.0000 -0.7779
vn -0.5774 -0.5774 0.5774
vn -0.7779 -0.6284 -0.0000
vn -0.2680 -0.9435 -0.1947
vn -0.3151 -0.5831 0.7488
vn -0.5831 -0.7488 0.3151
vn -0.2680 -0.9435 0.1947
vn -0.3151 -0.5831 -0.7488
vn -0.0000 -0.7779 -0.6284
vn 0.2680 -0.9435 0.1947
vn -0.0000 -0.9342 -0.3568
vn -0.5831 -0.7488 -0.3151
vn 0.2680 -0.9435 -0.1947
vn -0.5774 -0.5774 -0.5774
vn -0.7488 -0.3151 -0.5831
vn -0.7488 -0.3151 0.5831
vn -0.9342 -0.3568 -0.0000
vn -0.9435 0.1947 -0.2680
vn -0.9435 -0.1947 0.2680
vn -0.0000 0.9342 0.3568
vn 0.5831 -0.7488 -0.3151
vn 0.3151 -0.5831 -0.7488
vn 0.5831 -0.7488 0.3151
vn -0.0000 -0.9342 0.3568
vn 0.3151 -0.5831 0.7488
vn 0.5774 -0.5774 0.5774
vn -0.9435 -0.1947 -0.2680
vn 0.1947 0.2680 -0.9435
vn -0.1947 -0.2680 -0.9435
vn -0.7488 0.3151 -0.5831
vn -0.0000 0.9342 -0.3568
vn -0.2680 0.9435 -0.1947
vn -0.3151 0.5831 -0.7488
vn -0.5774 0.5774 -0.5774
vn -0.3151 0.5831 0.7488
vn 0.9435 0.1947 0.2680
vn 0.7488 0.3151 0.5831
vn 0.3568 -0.0000 0.9342
vn 0.3151 0.5831 0.7488
vn -0.2680 0.9435 0.1947
vn 0.7779 0.6284 -0.0000
vn -0.3568 -0.0000 0.9342
vn 0.5831 0.7488 0.3151
vn 0.9342 0.3568 -0.0000
vn -0.7779 0.6284 -0.0000
vn -0.5774 0.5774 0.5774
vn -0.5831 0.7488 0.3151
vn -0.9435 0.1947 0.2680
vn 0.2680 0.9435 0.1947
vn 0.5774 0.5774 0.5774
vn -0.1947 0.2680 0.9435
vn 0.6284 -0.0000 0.7779
vn -0.5831 0.7488 -0.3151
vn -0.6284 -0.0000 0.7779
vn -0.1947 -0.2680 0.9435
vn 0.1947 -0.2680 0.9435
vn 0.1947 0.2680 0.9435
vn 0.7488 -0.3151 0.5831
vn -0.7488 0.3151 0.5831
vn -0.9342 0.3568 -0.0000
vn -0.0000 0.7779 0.6284
vt 0.900000 0.100000
vt 0.500000 0.800000
vt 0.100000 0.100000
s 0
f 135/1/1 134/2/1 136/3/1
f 113/1/2 114/2/2 115/3/2
f 3/1/3 116/2/3 117/3/3
f 119/1/4 120/2/4 118/3/4
f 124/1/5 4/2/5 2/3/5
f 123/1/6 122/2/6 121/3/6
f 7/1/7 6/2/7 5/3/7
f 131/1/8 8/2/8 130/3/8
f 126/1/9 125/2/9 1/3/9
f 129/1/10 128/2/10 127/3/10
f 81/1/11 80/2/11 79/3/11
f 78/1/12 77/2/12 76/3/12
f 11/1/13 83/2/13 82/3/13
f 63/1/14 64/2/14 62/3/14
f 51/1/15 53/2/15 52/3/15
f 56/1/16 55/2/16 54/3/16
f 58/1/17 59/2/17 57/3/17
f 34/1/18 35/2/18 33/3/18
f 32/1/19 31/2/19 30/3/19
f 43/1/20 41/2/20 42/3/20
f 150/1/21 151/2/21 149/3/21
f 153/1/22 154/2/22 152/3/22
f 148/1/23 147/2/23 20/3/23
f 21/1/24 132/2/24 133/3/24
f 144/1/25 145/2/25 146/3/25
f 92/1/26 93/2/26 94/3/26
f 95/1/27 97/2/27 96/3/27
f 91/1/28 23/2/28 90/3/28
f 87/1/29 89/2/29 88/3/29
f 85/1/30 84/2/30 86/3/30
f 24/1/31 22/2/31 19/3/31
f 15/1/32 102/2/32 101/3/32
f 99/1/33 100/2/33 98/3/33
f 25/1/34 112/2/34 18/3/34
f 106/1/35 108/2/35 107/3/35
f 105/1/36 103/2/36 104/3/36
f 111/1/37 110/2/37 109/3/37
f 156/1/38 26/2/38 155/3/38
f 215/1/39 167/2/39 216/3/39
f 12/1/40 10/2/40 140/3/40
f 141/1/41 143/2/41 142/3/41
f 137/1/42 139/2/42 138/3/42
f 71/1/43 13/2/43 72/3/43
f 73/1/44 74/2/44 75/3/44
f 69/1/45 68/2/45 70/3/45
f 65/1/46 67/2/46 66/3/46
f 50/1/47 16/2/47 49/3/47
f 61/1/48 60/2/48 14/3/48
f 48/1/49 47/2/49 46/3/49
f 37/1/50 36/2/50 38/3/50
f 9/1/51 39/2/51 40/3/51
f 45/1/52 17/2/52 44/3/52
f 28/1/53 27/2/53 29/3/53
f 164/1/54 166/2/54 165/3/54
f 221/1/55 222/2/55 220/3/55
f 219/1/56 218/2/56 217/3/56
f 206/1/57 205/2/57 207/3/57
f 173/1/58 168/2/58 161/3/58
f 210/1/59 209/2/59 208/3/59
f 174/1/60 172/2/60 211/3/60
f 203/1/61 204/2/61 202/3/61
f 214/1/62 213/2/62 212/3/62
f 223/1/63 225/2/63 224/3/63
f 187/1/64 189/2/64 188/3/64
f 163/1/65 175/2/65 162/3/65
f 186/1/66 184/2/66 185/3/66
f 198/1/67 196/2/67 197/3/67
f 159/1/68 160/2/68 171/3/68
f 229/1/69 169/2/69 230/3/69
f 170/1/70 158/2/70 157/3/70
f 177/1/71 179/2/71 178/3/71
f 199/1/72 201/2/72 200/3/72
f 180/1/73 231/2/73 232/3/73
f 237/1/74 235/2/74 236/3/74
f 176/1/75 233/2/75 234/3/75
f 240/1/76 238/2/76 239/3/76
f 228/1/77 227/2/77 226/3/77
f 195/1/78 194/2/78 193/3/78
f 190/1/79 191/2/79 192/3/79
f 181/1/80 182/2/80 183/3/80
